# xmcd
#
# Track frame offsets:
#	150
#	19570
#	38741
#	56912
#	77980
#	96341
#	112733
#	131632
#	149747
#	167159
#	183046
#	201873
#	220164
#	239223
#	260714
#	278380
#
# Disc length: 3897
#
# Revision: 1
# Processed by: cddbd v1.5.1PL0 Copyright (c) Steve Scherf et al.
# Submitted via: EasyCDDAExtractor 5.0.4.1
# Normalized: r0:DSETVAR1
#
DISCID=ec0f3710
DTITLE=Various Artist - Women now
DYEAR=1900
DGENRE=pop
TTITLE0=Geri Halliwell - It's raining men
TTITLE1=Janet Jackson - Somebody to call my lover
TTITLE2=Destiny's Child - Survivor
TTITLE3=Anastacia - Cowboy and kisses
TTITLE4=Nelly Furtado - I'm like a bird
TTITLE5=Bellefire - Perfect bliss
TTITLE6=Lene Marlin - Where i'm headed
TTITLE7=Emma Bunton - What took you so long
TTITLE8=Britney Spears - Don't let me be the last to know
TTITLE9=Noelia - Candela
TTITLE10=Kelis - Caught out there
TTITLE11=Aaliyah - We need a resolution
TTITLE12=Melanie - Never be the same again
TTITLE13=Skunk Anansie - Secretly
TTITLE14=Nikka Costa - Like a feather
TTITLE15=Atomic Kitten - Whole again
EXTD=
EXTT0=
EXTT1=
EXTT2=
EXTT3=
EXTT4=
EXTT5=
EXTT6=
EXTT7=
EXTT8=
EXTT9=
EXTT10=
EXTT11=
EXTT12=
EXTT13=
EXTT14=
EXTT15=
PLAYORDER=
